<svg data-v-0dd9719b="" version="1.0" xmlns="http://www.w3.org/2000/svg" xmlns:xlink="http://www.w3.org/1999/xlink" width="100%" height="100%" viewBox="0 0 340.000000 250.000000" preserveAspectRatio="xMidYMid meet" color-interpolation-filters="sRGB" style="margin: auto;"> <rect data-v-0dd9719b="" x="0" y="0" width="100%" height="100%" fill="#fff" fill-opacity="1" class="background"></rect> <rect data-v-0dd9719b="" x="0" y="0" width="100%" height="100%" fill="url(#watermark)" fill-opacity="1" class="watermarklayer"></rect> <g data-v-0dd9719b="" fill="#00a5a9" class="icon-text-wrapper icon-svg-group iconsvg" transform="translate(50.019996643066406,96.98356437683105)"><g class="iconsvg-imagesvg" transform="translate(0,0)"><g><rect fill="#00a5a9" fill-opacity="0" stroke-width="2" x="0" y="0" width="60" height="56.032872618602916" class="image-rect"></rect> <svg x="0" y="0" width="60" height="56.032872618602916" filtersec="colorsb8689590368" class="image-svg-svg primary" style="overflow: visible;"><svg xmlns="http://www.w3.org/2000/svg" viewBox="13.677627563476562 89.5285873413086 1476.3446044921875 1378.7261962890625"><g fill-rule="evenodd" clip-rule="evenodd"><path fill="#F08D00" d="M358.406 181.943C550.705 70.924 774.3 63.149 965.028 141.368l-57.756 33.342c-167.65-56.601-357.884-43.599-523.129 51.804-305.012 176.1-409.561 566.267-233.459 871.279 176.096 305.007 566.264 409.55 871.276 233.453 185.105-106.868 296.369-292.59 315.869-490.267l53.858-31.089c-10.432 226.913-132.717 443.941-343.995 565.929-329.625 190.309-751.274 77.33-941.577-252.3-190.313-329.618-77.328-751.268 252.291-941.576zm699.421 5.909l-51.649 29.82a637.01 637.01 0 0 1 84.719 54.722l47.961-27.691a686.894 686.894 0 0 0-81.031-56.851zm147.339 118.633l-45.885 26.491c21.022 21.533 40.692 44.789 58.827 69.669l44.813-25.873a687.636 687.636 0 0 0-57.755-70.287zm103.789 143.775l-44.605 25.751a639.248 639.248 0 0 1 37.178 82.169l45.185-26.085a690.8 690.8 0 0 0-37.758-81.835zm64.195 166.634l-46.629 26.921a633.982 633.982 0 0 1 13.22 95.999l49.409-28.525a685.037 685.037 0 0 0-16-94.395z"></path><path fill="#00A5A9" d="M413.555 277.454c69.461-40.106 143.791-64.161 218.694-73.335-29.125 38.673-53.036 80.618-71.49 124.693L169.17 554.897c47.212-112.791 130.338-211.603 244.385-277.443zm630.931-181.966L540.023 386.74 230.588 565.392l-82.155 47.433c-16.611 55.521-24.915 113.473-24.395 171.828l391.585-226.088a581.895 581.895 0 0 1 2.5-59.114L1153.08 132.86a582.853 582.853 0 0 0-108.594-37.372zm198.664 89.001L517.768 603.288 318.795 718.167 126.178 829.375a574.869 574.869 0 0 0 30.16 140.325l391.59-226.085a575.151 575.151 0 0 1-14.774-49.142l781.316-451.095a576.018 576.018 0 0 0-71.32-58.889zm131.619 127.706L562.554 781.127l-155.556 89.811-236.034 136.274a581.113 581.113 0 0 0 30.659 61.169c11.552 20.015 24.156 39.053 37.64 57.135l391.596-226.085a589.923 589.923 0 0 1-28.212-41.383l818.67-472.66c-2.883-5.38-1.587-3.39-8.903-16.059-7.316-12.669-24.156-39.047-37.645-57.134zm82.93 155.819l-801.665 462.84-160.828 92.858-230.763 133.228a574.66 574.66 0 0 0 106.449 96.282l391.59-226.085a576.151 576.151 0 0 1-42.758-32.99l760.946-439.333a574.74 574.74 0 0 0-22.971-86.8zm32.3 185.047a580.476 580.476 0 0 1-8.638 105.055l-585.923 338.286a584.178 584.178 0 0 0 65.703 19.738l-391.59 226.085c-56.381-13.378-110.733-35.155-160.998-64.789l174.854-100.954 216.736-125.131 689.856-398.29zm-324.587 474.515c-45.396 60.283-103.396 112.623-172.863 152.732-114.035 65.835-241.178 88.43-362.46 72.923l391.591-226.085c47.397 6.062 95.681 6.323 143.732.43z"></path></g></svg></svg> <!----></g></g> <g transform="translate(67,11.631437301635742)"><g data-gra="path-name" fill-rule="" class="tp-name iconsvg-namesvg"><g transform="scale(1)"><g><path d="M16.64-27.97L8.06-27.97 8.06-16.99 16.47-16.99Q22.99-16.99 22.99-22.65L22.99-22.65Q22.99-27.8 16.64-27.97L16.64-27.97ZM18.02-13.21L8.06-13.21 8.06 0 3.78 0 3.78-31.4 18.02-31.4Q26.94-31.06 27.28-22.65L27.28-22.65Q26.77-13.56 18.02-13.21L18.02-13.21ZM32.43-31.4L36.72-31.4 36.72-3.78 52.68-3.78 52.68 0 32.43 0 32.43-31.4ZM77.56 0L74.47-9.09 61.77-9.09 58.51 0 54.22 0 66.06-31.4 70.87-31.4 82.19 0 77.56 0ZM68.12-26.77L63.15-12.87 72.93-12.87 68.29-26.77 68.12-26.77ZM91.12-31.4L106.9-6.01 106.9-31.4 111.02-31.4 111.02 0 106.22 0 90.26-25.4 90.09-25.4 90.09 0 85.97 0 85.97-31.4 91.12-31.4ZM142.42-15.61L142.42-15.61Q141.73-27.97 131.44-28.66L131.44-28.66Q120.97-28.14 120.46-15.61L120.46-15.61Q120.97-3.43 131.44-2.92L131.44-2.92Q141.73-3.6 142.42-15.61ZM146.71-15.61L146.71-15.61Q145.68 0 131.44 0.51L131.44 0.51Q117.03 0 116-15.61L116-15.61Q116.85-31.92 131.44-32.26L131.44-32.26Q145.68-31.74 146.71-15.61ZM156.84-31.4L172.62-6.01 172.62-31.4 176.74-31.4 176.74 0 171.94 0 155.98-25.4 155.81-25.4 155.81 0 151.69 0 151.69-31.4 156.84-31.4Z" transform="translate(-3.7799999713897705, 32.2599983215332)"></path></g> <!----> <!----> <!----> <!----> <!----> <!----> <!----></g></g> <!----></g></g><defs v-gra="od"></defs></svg>